<?xml version="1.0" encoding="utf-8"?>
<!-- Generator: Adobe Illustrator 16.0.0, SVG Export Plug-In . SVG Version: 6.00 Build 0)  -->
<!DOCTYPE svg PUBLIC "-//W3C//DTD SVG 1.1//EN" "http://www.w3.org/Graphics/SVG/1.1/DTD/svg11.dtd">
<svg version="1.1" id="Calque_1" xmlns="http://www.w3.org/2000/svg" xmlns:xlink="http://www.w3.org/1999/xlink" x="0px" y="0px"
	 width="960px" height="560px" viewBox="0 0 960 560" enable-background="new 0 0 960 560" xml:space="preserve">
<g>
	<path fill="#2979FF" d="M231.465,207.957c-32.405-31.248-72.333-42.242-116.311-34.141c16.203,3.472,32.405,6.944,48.607,11.573
		c16.203,5.208,46.872,20.253,54.394,35.877c-12.73-5.787-17.359-10.994-46.872-19.096c-23.146-5.787-48.607-11.573-72.911-15.045
		c-25.461-3.472-50.922-5.208-74.647-16.203C15.624,167.45,8.68,162.242,0,158.771c5.208,5.208,10.416,10.994,16.203,16.202
		c26.618,22.568,58.445,34.141,92.586,39.928c31.248,5.208,62.495,10.995,92.007,24.304c32.405,15.624,53.237,41.085,64.231,74.647
		c0.579,2.314,1.736,4.63,2.893,7.522C275.443,276.817,262.712,238.625,231.465,207.957L231.465,207.957z"/>
	<path fill="#2979FF" d="M256.926,322.531c-4.629-20.253-15.624-36.455-31.248-50.343c-24.304-21.411-53.237-32.984-85.063-36.456
		c-8.68-1.157-16.781-2.315-25.461-3.472c11.573,6.944,29.512,16.203,46.872,24.304c26.04,11.573,51.501,26.04,65.389,40.506
		c11.573,10.416,20.832,23.146,24.882,39.35c2.315,8.101,2.315,16.781,3.472,26.039
		C260.398,348.571,259.819,335.262,256.926,322.531L256.926,322.531z"/>
	<path fill="#1DE9B6" d="M162.604,256.564c-17.36-7.522-35.298-17.36-46.872-24.304c-28.354-4.629-56.709-11.573-83.327-23.725
		c26.618,24.883,58.445,39.928,93.743,47.45c26.618,5.787,53.815,11.573,78.119,24.304c8.68,4.629,16.781,9.838,23.146,15.624
		C214.105,282.604,188.644,268.137,162.604,256.564L162.604,256.564z"/>
	<path fill="#1DE9B6" d="M233.779,326.004c-16.203-20.254-38.191-31.826-62.496-39.35c-33.562-10.416-75.805-21.41-105.895-39.927
		c2.894,2.893,8.68,8.101,10.416,9.837c11.573,10.995,19.674,16.203,32.405,23.725c17.938,10.994,38.77,16.203,58.445,24.305
		c13.309,5.786,27.776,9.837,39.928,17.359c20.832,12.73,34.72,31.248,37.613,56.13C249.982,358.408,246.51,341.049,233.779,326.004
		L233.779,326.004z"/>
	<path fill="#1DE9B6" d="M199.638,334.684c-12.73-6.365-27.197-10.994-41.085-15.045c-24.304-6.365-48.607-13.889-68.861-30.091
		c10.416,16.781,26.04,27.197,43.4,35.299c16.781,8.101,34.141,14.466,50.344,22.567c9.258,4.629,17.938,10.994,26.04,17.36
		c10.995,9.258,16.781,21.41,15.045,36.455c9.258-5.786,12.73-15.045,9.837-26.618C229.15,355.516,216.419,342.785,199.638,334.684
		L199.638,334.684z"/>
	<path fill="#333333" d="M337.36,223.002c11.573,0,20.832,5.787,26.619,12.152l-6.944,8.101c-5.208-5.208-10.995-9.258-19.096-9.258
		c-18.517,0-30.669,15.045-30.669,39.349c0,24.304,11.573,39.928,30.09,39.928c9.259,0,16.203-4.051,22.568-10.995l6.944,7.522
		c-7.522,8.681-17.36,13.889-29.512,13.889c-24.304,0-42.242-18.518-42.242-50.344C293.96,242.098,312.478,223.002,337.36,223.002
		L337.36,223.002z"/>
	<path fill="#333333" d="M378.445,342.206c8.101,0,13.309-6.365,16.203-15.624l1.736-5.208L367.45,249.62h12.73l14.467,39.928
		c2.314,6.365,4.629,13.888,6.944,20.253h0.578c2.314-6.365,4.051-13.888,5.787-20.253l12.73-39.928h11.573l-27.197,77.541
		c-5.208,14.467-12.152,24.882-26.619,24.882c-3.472,0-5.787-0.578-8.68-1.735l2.314-9.838
		C374.394,341.628,376.709,342.206,378.445,342.206L378.445,342.206z"/>
	<path fill="#333333" d="M477.975,247.884c-8.102,0-16.202,4.051-22.567,9.837l0.578-13.31v-28.933h-12.151v105.317h9.837
		l1.157-6.944h0.579c6.365,5.787,13.888,8.68,20.831,8.68c16.203,0,31.248-14.466,31.248-38.77
		C506.908,262.351,497.07,247.884,477.975,247.884z M473.346,313.273c-4.63,0-10.995-2.315-17.36-7.523v-37.613
		c6.944-6.365,13.31-9.837,19.096-9.837c13.31,0,19.097,10.416,19.097,26.618C494.178,302.278,485.497,313.273,473.346,313.273z
		 M477.975,247.884c-8.102,0-16.202,4.051-22.567,9.837l0.578-13.31v-28.933h-12.151v105.317h9.837l1.157-6.944h0.579
		c6.365,5.787,13.888,8.68,20.831,8.68c16.203,0,31.248-14.466,31.248-38.77C506.908,262.351,497.07,247.884,477.975,247.884z
		 M473.346,313.273c-4.63,0-10.995-2.315-17.36-7.523v-37.613c6.944-6.365,13.31-9.837,19.096-9.837
		c13.31,0,19.097,10.416,19.097,26.618C494.178,302.278,485.497,313.273,473.346,313.273z"/>
	<path fill="#333333" d="M578.662,282.025c0-20.832-10.416-33.562-28.934-33.562c-16.202,0-32.404,14.467-32.404,37.613
		c0,23.725,15.045,37.613,34.719,37.613c9.838,0,17.36-3.473,23.726-7.523l-4.051-8.101c-5.208,3.472-10.994,5.786-17.938,5.786
		c-13.888,0-23.146-9.837-23.725-25.461h48.607C578.662,286.654,578.662,284.34,578.662,282.025z M529.476,280.289
		c1.736-14.466,10.416-22.567,20.832-22.567c10.994,0,17.938,8.101,17.938,22.567H529.476z"/>
	<path fill="#333333" d="M593.129,216.637h12.151v91.429c0,4.05,1.736,5.208,3.472,5.208c0.579,0,1.157,0,2.894-0.579l1.736,9.259
		c-1.736,0.578-3.473,1.157-6.944,1.157c-9.259,0-12.73-5.787-12.73-16.202L593.129,216.637L593.129,216.637z"/>
	<path fill="#333333" d="M666.04,224.738h-13.888l-32.984,96.636h12.73l9.259-29.512h35.299l9.258,29.512h13.31L666.04,224.738z
		 M644.051,282.025l4.629-15.045c3.473-10.995,6.944-21.41,9.838-32.983h0.578c2.894,10.994,6.365,21.989,9.838,32.983l4.629,15.045
		H644.051z"/>
	<path fill="#333333" d="M711.176,249.62h9.837l1.157,10.416h0.579c6.943-6.944,14.466-12.152,24.304-12.152
		c15.045,0,21.989,9.837,21.989,28.354v45.714H756.89v-43.979c0-13.309-4.051-19.096-13.888-19.096
		c-7.522,0-12.152,4.051-19.675,10.995v52.08h-12.151V249.62L711.176,249.62z"/>
	<path fill="#333333" d="M828.065,312.694h-13.888c-9.838,0-12.73-3.472-12.73-8.101c0-4.051,2.314-6.365,4.629-8.681
		c3.472,1.736,7.522,2.315,10.994,2.315c14.467,0,26.04-9.838,26.04-24.883c0-5.787-2.314-11.573-5.786-15.045h14.466v-9.259
		h-24.882c-2.894-1.157-6.365-1.736-10.416-1.736c-14.467,0-27.197,9.837-27.197,25.461c0,8.681,4.629,15.624,9.259,19.675v0.578
		c-3.473,2.314-8.102,7.523-8.102,13.31s2.894,9.259,6.365,11.573v0.579c-6.365,4.629-10.416,10.415-10.416,16.202
		c0,12.151,12.152,19.675,29.512,19.675c22.568,0,36.456-11.573,36.456-24.883C852.947,317.902,844.268,312.694,828.065,312.694z
		 M816.492,257.143c8.68,0,15.045,6.365,15.045,16.781c0,10.416-6.943,17.359-15.045,17.359s-15.046-6.943-15.046-17.359
		C801.446,262.93,808.391,257.143,816.492,257.143z M818.228,346.257c-12.73,0-20.831-4.629-20.831-12.73
		c0-4.051,2.314-8.68,7.522-12.152c2.893,1.157,6.365,1.157,9.259,1.157h12.151c9.259,0,14.467,2.315,14.467,8.681
		C841.374,339.312,832.116,346.257,818.228,346.257z"/>
	<path fill="#333333" d="M922.387,282.025c0-20.832-10.416-33.562-28.933-33.562c-16.203,0-32.405,14.467-32.405,37.613
		c0,23.725,15.045,37.613,34.72,37.613c9.837,0,17.359-3.473,23.726-7.523l-4.051-8.101c-5.208,3.472-10.995,5.786-17.938,5.786
		c-13.889,0-23.146-9.837-23.726-25.461h48.607C922.387,286.654,922.387,284.34,922.387,282.025z M873.201,280.289
		c1.735-14.466,10.415-22.567,20.831-22.567c10.995,0,17.938,8.101,17.938,22.567H873.201z"/>
	<path fill="#333333" d="M940.325,216.637h12.152v91.429c0,4.05,1.736,5.208,3.472,5.208c0.579,0,1.157,0,2.894-0.579l1.736,9.259
		c-1.736,0.578-3.473,1.157-6.944,1.157c-9.259,0-12.73-5.787-12.73-16.202L940.325,216.637L940.325,216.637z"/>
</g>
</svg>
